<svg id="Capa_1" viewBox="0 0 551.13 551.13" xmlns="http://www.w3.org/2000/svg">
    <path d="m254.764 409.795-83.394 83.394c-15.154 15.154-35.303 23.496-56.714 23.496-44.234 0-80.21-35.976-80.21-80.21 0-21.428 8.342-41.56 23.496-56.714l149.589-149.589c30.359-30.308 83.238-30.274 113.462.034l24.388-24.321c-43.309-43.41-118.861-43.41-162.204-.067l-149.588 149.588c-21.663 21.663-33.588 50.441-33.588 81.068 0 63.223 51.433 114.656 114.656 114.656 30.628 0 59.405-11.925 81.068-33.588l105.606-105.605c-4.821.465-9.539 1.411-14.446 1.411-11.031 0-21.766-1.27-32.121-3.553z"/><path d="m436.474 0c-30.628 0-59.405 11.925-81.068 33.588l-105.606 105.605c4.821-.465 9.539-1.411 14.446-1.411 10.983 0 21.554 1.541 31.868 3.805l83.646-83.646c15.154-15.154 35.286-23.496 56.714-23.496 44.234 0 80.21 35.976 80.21 80.21 0 21.428-8.342 41.56-23.496 56.714l-149.59 149.591c-30.375 30.325-83.255 30.274-113.529-.084l-24.388 24.321c21.663 21.73 50.508 33.706 81.203 33.706 30.628 0 59.405-11.925 81.068-33.588l149.589-149.589c21.663-21.663 33.588-50.441 33.588-81.068.001-63.225-51.432-114.658-114.655-114.658z"/>
</svg>